<svg width="20" height="16" viewBox="0 0 20 16" fill="none" xmlns="http://www.w3.org/2000/svg">
<path d="M16.8912 0.507376C17.2368 0.178344 17.6967 -0.00355778 18.1739 5.27373e-05C18.651 0.00366325 19.1081 0.192505 19.4487 0.526729C19.7893 0.860953 19.9867 1.31442 19.9994 1.79144C20.012 2.26846 19.8388 2.73172 19.5163 3.08348L9.72714 15.3261C9.55881 15.5074 9.35565 15.6529 9.1298 15.7539C8.90396 15.8549 8.66007 15.9093 8.41271 15.9139C8.16536 15.9185 7.91962 15.8731 7.69019 15.7806C7.46076 15.688 7.25236 15.5501 7.07743 15.3752L0.585654 8.88339C0.404869 8.71493 0.259866 8.51178 0.159295 8.28607C0.0587241 8.06036 0.00464558 7.8167 0.000286364 7.56963C-0.00407285 7.32256 0.0413766 7.07715 0.133923 6.84803C0.226468 6.61891 0.364215 6.41077 0.538946 6.23604C0.713676 6.06131 0.921809 5.92357 1.15093 5.83102C1.38005 5.73847 1.62547 5.69302 1.87253 5.69738C2.1196 5.70174 2.36326 5.75582 2.58897 5.85639C2.81469 5.95696 3.01783 6.10197 3.18629 6.28275L8.32378 11.4178L16.8445 0.561353C16.8599 0.542463 16.8763 0.524443 16.8936 0.507376H16.8912Z" fill="white"/>
</svg>
